HIERARCHY
ROOT Hips
{
    OFFSET 0.000000 0.000000 0.000000
    CHANNELS 6 Xposition Yposition Zposition Zrotation Xrotation Yrotation
    JOINT Spine
    {
        OFFSET -0.000000 7.236184 0.000000
        CHANNELS 3 Zrotation Xrotation Yrotation
        JOINT Spine1
        {
            OFFSET -0.000000 20.420147 0.000000
            CHANNELS 3 Zrotation Xrotation Yrotation
            JOINT Neck
            {
                OFFSET -0.000000 20.336288 1.848754
                CHANNELS 3 Zrotation Xrotation Yrotation
                JOINT Head
                {
                    OFFSET -0.000000 12.354461 -1.764923
                    CHANNELS 3 Zrotation Xrotation Yrotation
                    End Site
                    {
                        OFFSET -0.000000 22.061537 0.000000
                    }
                }
            }
            JOINT LeftShoulder
            {
                OFFSET 3.573296 18.396038 -0.314103
                CHANNELS 3 Zrotation Xrotation Yrotation
                JOINT LeftArm
                {
                    OFFSET 10.880760 0.000000 0.000000
                    CHANNELS 3 Zrotation Xrotation Yrotation
                    JOINT LeftForeArm
                    {
                        OFFSET 27.185530 0.000000 0.000000
                        CHANNELS 3 Zrotation Xrotation Yrotation
                        JOINT LeftHand
                        {
                            OFFSET 27.825975 0.000000 0.000000
                            CHANNELS 3 Zrotation Xrotation Yrotation
                            End Site
                            {
                                OFFSET 13.236923 0.000000 0.000000
                            }
                        }
                    }
                }
            }
            JOINT RightShoulder
            {
                OFFSET -3.474926 18.396038 -0.314103
                CHANNELS 3 Zrotation Xrotation Yrotation
                JOINT RightArm
                {
                    OFFSET -10.880760 0.000000 0.000000
                    CHANNELS 3 Zrotation Xrotation Yrotation
                    JOINT RightForeArm
                    {
                        OFFSET -27.185530 0.000000 0.000000
                        CHANNELS 3 Zrotation Xrotation Yrotation
                        JOINT RightHand
                        {
                            OFFSET -27.825975 0.000000 0.000000
                            CHANNELS 3 Zrotation Xrotation Yrotation
                            End Site
                            {
                                OFFSET -13.236923 0.000000 0.000000
                            }
                        }
                    }
                }
            }
        }
    }
    JOINT LeftUpLeg
    {
        OFFSET 8.824615 0.000000 0.000000
        CHANNELS 3 Zrotation Xrotation Yrotation
        JOINT LeftLeg
        {
            OFFSET -0.000000 -35.111282 0.000000
            CHANNELS 3 Zrotation Xrotation Yrotation
            JOINT LeftFoot
            {
                OFFSET -0.000000 -42.324711 0.000000
                CHANNELS 3 Zrotation Xrotation Yrotation
                JOINT LeftToeBase
                {
                    OFFSET -0.000000 -5.735999 13.236923
                    CHANNELS 3 Zrotation Xrotation Yrotation
                    End Site
                    {
                        OFFSET -0.000000 0.000000 3.529846
                    }
                }
            }
        }
    }
    JOINT RightUpLeg
    {
        OFFSET -8.824615 0.000000 0.000000
        CHANNELS 3 Zrotation Xrotation Yrotation
        JOINT RightLeg
        {
            OFFSET -0.000000 -35.111282 0.000000
            CHANNELS 3 Zrotation Xrotation Yrotation
            JOINT RightFoot
            {
                OFFSET -0.000000 -42.324711 0.000000
                CHANNELS 3 Zrotation Xrotation Yrotation
                JOINT RightToeBase
                {
                    OFFSET -0.000000 -5.735999 13.236923
                    CHANNELS 3 Zrotation Xrotation Yrotation
                    End Site
                    {
                        OFFSET -0.000000 0.000000 3.529846
                    }
                }
            }
        }
    }
}
MOTION
Frames:    9
Frame Time:    0.008333
-4.493259    83.872330    100.998688    0.722329    -9.839798    -175.006805    -0.332057    -16.729324    1.640926    0.550600    10.944560    1.637037    1.834419    0.820833    -1.116917    4.251688    -15.795421    -0.246549    -1.891471    21.050924    -1.845852    -46.436913    30.071682    -34.365330    0.364187    -11.057473    -3.595691    14.372056    -10.814176    1.874505    8.702840    21.939423    -6.566854    32.887966    44.162346    41.400112    -4.699813    -14.890189    13.227210    -13.063652    -14.260112    -0.924143    8.680716    -7.756194    -0.410886    -0.552400    5.848323    3.008650    -9.695937    -6.072258    -10.650184    -0.085043    -0.012764    0.094270    -6.034817    -5.842032    -5.286174    1.666069    8.862797    -3.357708    3.496253    -8.066738    -14.551209    -1.834598    -0.691247    1.986125    
-4.446704    83.805885    100.906082    0.409470    -9.586714    -175.197342    -0.752629    -16.506758    1.450029    0.690692    10.911596    1.493235    1.821609    0.854193    -0.824893    4.257154    -15.740669    0.059104    -1.701617    20.563803    -1.686302    -46.393139    28.271070    -33.457760    0.824784    -12.180167    -3.777019    15.043585    -11.996483    1.216717    8.724449    22.046062    -6.791368    33.555450    43.978146    40.441669    -4.442365    -14.302767    13.046117    -12.478204    -13.730282    -0.748758    8.413985    -7.374794    -0.422812    -0.506289    5.834666    3.209131    -9.801729    -6.108934    -10.749684    -0.063886    -0.052410    0.070822    -6.426196    -5.955945    -5.352521    1.826033    9.676553    -3.092937    3.483217    -8.294193    -14.603643    -1.850604    -0.888030    2.004000    
-4.401455    83.744812    100.817871    0.123924    -9.348614    -175.380188    -1.135617    -16.300282    1.272371    0.818319    10.877415    1.357158    1.809388    0.892085    -0.544460    4.264679    -15.690190    0.353453    -1.513331    20.091728    -1.535900    -46.305382    26.513187    -32.623688    1.289308    -13.317688    -3.985789    15.689651    -13.164180    0.819034    8.742124    22.149658    -7.004691    34.172050    43.787792    39.525459    -4.200307    -13.739373    12.866212    -11.912827    -13.218622    -0.591377    8.172022    -7.015692    -0.425358    -0.463019    5.821095    3.399808    -9.903038    -6.142323    -10.844650    -0.043674    -0.089439    0.048419    -6.783741    -6.066697    -5.414628    1.970587    10.442809    -2.846982    3.473978    -8.502077    -14.644411    -1.866885    -1.076772    2.022162    
-4.355544    83.687958    100.730812    -0.140524    -9.121075    -175.564728    -1.487689    -16.106100    1.101900    0.934638    10.836493    1.223820    1.797560    0.939766    -0.263166    4.276720    -15.641666    0.649872    -1.317273    19.610733    -1.386564    -46.164219    24.745548    -31.828045    1.777706    -14.487164    -4.236129    16.335833    -14.335772    0.630881    8.754624    22.254282    -7.215259    34.769619    43.587566    38.606163    -3.963616    -13.174188    12.682867    -11.342484    -12.701366    -0.447967    7.949908    -6.669324    -0.415432    -0.420233    5.806517    3.589707    -10.004421    -6.172410    -10.939177    -0.024083    -0.124875    0.026702    -7.115219    -6.180273    -5.476409    2.103251    11.181714    -2.613836    3.472155    -8.690439    -14.667514    -1.884952    -1.265818    2.042272    
-4.309141    83.636490    100.645508    -0.379152    -8.908406    -175.750763    -1.801611    -15.927780    0.939976    1.036274    10.785810    1.094176    1.786408    0.998940    0.017450    4.295960    -15.593002    0.947800    -1.112059    19.119312    -1.238801    -45.966770    22.992151    -31.074593    2.287213    -15.656944    -4.530691    16.976625    -15.479658    0.626857    8.760620    22.359886    -7.421618    35.348358    43.380550    37.683338    -3.733547    -12.611382    12.499133    -10.771214    -12.182236    -0.322474    7.751697    -6.340521    -0.391950    -0.377851    5.790680    3.778651    -10.104825    -6.197464    -11.032694    -0.006471    -0.161473    0.007175    -7.414542    -6.295253    -5.537620    2.221768    11.880028    -2.399462    3.481108    -8.852683    -14.666691    -1.905336    -1.454465    2.064903    
-4.262249    83.590851    100.561920    -0.590455    -8.711900    -175.938034    -2.075475    -15.766305    0.786288    1.122195    10.723312    0.968389    1.776341    1.071267    0.296838    4.324461    -15.542638    1.246972    -0.896148    18.615437    -1.093839    -45.713223    21.266657    -30.362265    2.814662    -16.801903    -4.870325    17.607180    -16.572157    0.775690    8.759154    22.466206    -7.623268    35.910797    43.168072    36.753605    -3.510119    -12.055273    12.317387    -10.202951    -11.665523    -0.217257    7.578594    -6.030446    -0.355645    -0.335678    5.773402    3.965553    -10.202936    -6.216350    -11.123456    0.007546    -0.201976    -0.008368    -7.679886    -6.408522    -5.597319    2.326434    12.529607    -2.207093    3.502611    -8.985952    -14.639387    -1.928531    -1.641413    2.090590    
-4.211818    83.549072    100.475014    -0.784138    -8.522084    -176.137924    -2.322282    -15.613663    0.631719    1.196028    10.641799    0.838789    1.767422    1.161755    0.591146    4.367597    -15.482539    1.565625    -0.653237    18.064978    -0.944234    -45.383587    19.478876    -29.649467    3.390367    -17.966991    -5.280487    18.259575    -17.655991    1.059562    8.749096    22.579477    -7.832440    36.492962    42.937325    35.755081    -3.280067    -11.478103    12.128880    -9.607932    -11.125717    -0.128446    7.423025    -5.722892    -0.304354    -0.291343    5.753682    4.160747    -10.302514    -6.228530    -11.214776    0.016869    -0.252614    -0.018708    -7.923554    -6.523852    -5.657724    2.423382    13.159207    -2.027891    3.540124    -9.094639    -14.581555    -1.956501    -1.836581    2.121495    
-4.160422    83.513748    100.389565    -0.948171    -8.350049    -176.338821    -2.528403    -15.478333    0.484322    1.254492    10.543899    0.712241    1.761106    1.266481    0.883532    4.424560    -15.414172    1.885111    -0.394148    17.496447    -0.800995    -44.998512    17.733490    -28.975821    3.978725    -19.069841    -5.739720    18.888229    -18.654314    1.440177    8.730681    22.692736    -8.037565    37.062355    42.699818    34.740013    -3.057100    -10.918221    11.945862    -9.022878    -10.599239    -0.060436    7.294871    -5.435666    -0.241424    -0.247370    5.732950    4.352840    -10.398435    -6.231356    -11.300844    0.019993    -0.313964    -0.022174    -8.130646    -6.631224    -5.712991    2.508537    13.727142    -1.871694    3.591533    -9.172035    -14.498734    -1.987543    -2.027702    2.155737    
-4.107038    83.484177    100.304100    -1.085681    -8.192823    -176.543564    -2.699944    -15.357162    0.340703    1.300481    10.426941    0.586187    1.757992    1.385923    1.177512    4.497898    -15.333177    2.210130    -0.112555    16.900192    -0.663745    -44.552708    16.015110    -28.328823    4.585056    -20.124485    -6.256899    19.495951    -19.582775    1.892898    8.703404    22.807030    -8.242851    37.629696    42.449707    33.689747    -2.838249    -10.370738    11.766844    -8.439936    -10.082211    -0.008896    7.191864    -5.164275    -0.167002    -0.203474    5.711780    4.545403    -10.491077    -6.223458    -11.382713    0.017890    -0.388655    -0.019844    -8.305088    -6.729954    -5.762065    2.584877    14.240357    -1.733800    3.656849    -9.221072    -14.393611    -2.021518    -2.216147    2.193174    
